<?xml version="1.0" encoding="utf-8"?>
<!-- Generator: Adobe Illustrator 14.0.0, SVG Export Plug-In . SVG Version: 6.00 Build 43363)  -->
<!DOCTYPE svg PUBLIC "-//W3C//DTD SVG 1.1//EN" "http://www.w3.org/Graphics/SVG/1.1/DTD/svg11.dtd">
<svg version="1.1" id="Layer_1" xmlns="http://www.w3.org/2000/svg" xmlns:xlink="http://www.w3.org/1999/xlink" x="0px" y="0px"
	 width="1000px" height="1000px" viewBox="0 0 1000 1000" enable-background="new 0 0 1000 1000" xml:space="preserve">
<g>
	<path fill="#F2931A" d="M602.649,319.492l3.543-7.64l48.461-103.824H277.558c0,0,104.129,272.335,105.088,273.885l35.322-75.404
		l-52.42-137.913h46.948h110.43h36.503l-7.123,15.242L367.763,679.646c-2.657,5.685-5.868,10.999-9.559,15.909
		c-16.757,22.218-43.294,35.837-71.713,35.837c-28.974,0-56.322-16.424-70.238-41.817c-8.526-15.612-11.552-32.849-9.005-49.605
		c0.147-0.959,0.147-1.919,0.221-2.879h-60.752c-4.17,39.936,8.933,80.756,38.681,112.092c20.152,21.223,46.947,35.728,75.81,40.637
		c67.469,11.552,133.35-24.323,161.438-84.595L602.649,319.492z"/>
	<polygon fill="#F2931A" points="846.578,755.604 810.74,580.915 761.65,341.858 739.1,231.909 734.19,208.028 690.195,208.028 
		682.04,225.522 635.645,324.992 448.335,727.479 418.328,791.959 484.616,791.959 510.378,736.743 698.243,334.146 
		775.382,709.875 632.064,645.616 606.451,700.536 611.471,702.787 804.539,789.338 810.385,791.959 854.039,791.959 	"/>
</g>
</svg>
