<?xml version="1.0" encoding="utf-8"?>
<!-- Generator: Adobe Illustrator 14.0.0, SVG Export Plug-In . SVG Version: 6.00 Build 43363)  -->
<!DOCTYPE svg PUBLIC "-//W3C//DTD SVG 1.1//EN" "http://www.w3.org/Graphics/SVG/1.1/DTD/svg11.dtd">
<svg version="1.1" id="Layer_1" xmlns="http://www.w3.org/2000/svg" xmlns:xlink="http://www.w3.org/1999/xlink" x="0px" y="0px"
	 width="1000px" height="1000px" viewBox="0 0 1000 1000" enable-background="new 0 0 1000 1000" xml:space="preserve">
<g>
	<path fill="#F2931A" d="M168.566,742.315c-14.484,0-24.623-5.837-30.417-17.514l15.669-8.954c2.897,5.793,7.812,8.691,14.748,8.691
		c4.828,0,8.427-1.141,10.798-3.425c2.37-2.281,3.556-5.399,3.556-9.348v-63.47h18.039v63.47c0,9.657-3.028,17.161-9.086,22.516
		C185.816,739.638,178.046,742.315,168.566,742.315"/>
	<polygon fill="#F2931A" points="272.328,648.297 290.368,648.297 290.368,740.471 272.328,740.471 272.328,702.283 
		238.091,702.283 238.091,740.471 219.918,740.471 219.918,648.297 238.091,648.297 238.091,684.903 272.328,684.903 	"/>
	<path fill="#F2931A" d="M387.676,728.424c-9.306,9.262-20.63,13.893-33.973,13.893c-13.345,0-24.647-4.631-33.908-13.893
		c-9.261-9.262-13.891-20.607-13.891-34.04c0-13.432,4.63-24.776,13.891-34.04c9.261-9.259,20.563-13.892,33.908-13.892
		c13.343,0,24.667,4.633,33.973,13.892c9.304,9.264,13.958,20.608,13.958,34.04C401.634,707.816,396.98,719.162,387.676,728.424
		 M332.503,716.045c5.705,5.662,12.772,8.494,21.2,8.494c8.428,0,15.493-2.832,21.2-8.494c5.706-5.663,8.559-12.881,8.559-21.661
		c0-8.777-2.853-16.021-8.559-21.728c-5.707-5.703-12.772-8.558-21.2-8.558c-8.428,0-15.495,2.854-21.2,8.558
		c-5.708,5.707-8.56,12.95-8.56,21.728C323.943,703.164,326.795,710.382,332.503,716.045"/>
	<polygon fill="#F2931A" points="470.368,648.297 488.542,648.297 488.542,740.471 474.715,740.471 435.211,684.114 
		435.211,740.471 417.039,740.471 417.039,648.297 430.851,648.297 470.368,704.447 	"/>
	<path fill="#F2931A" d="M604.428,740.471l-5.861-16.591h-37.863l-5.529,16.591h-19.62l32.259-92.174h22.518l32.518,92.174H604.428z
		 M566.624,706.894h25.94l-13.301-37.659L566.624,706.894z"/>
	<path fill="#F2931A" d="M663.802,742.315c-9.129,0-16.81-2.041-23.042-6.125c-6.235-4.081-10.624-9.633-13.169-16.657l15.539-9.085
		c3.599,9.395,10.665,14.091,21.2,14.091c5.09,0,8.822-0.922,11.192-2.766c2.37-1.845,3.555-4.17,3.555-6.98
		c0-3.245-1.448-5.771-4.345-7.57c-2.898-1.8-8.078-3.754-15.538-5.858c-4.128-1.229-7.617-2.459-10.469-3.688
		c-2.854-1.229-5.707-2.874-8.559-4.937c-2.854-2.063-5.028-4.677-6.519-7.836c-1.494-3.159-2.239-6.848-2.239-11.062
		c0-8.34,2.963-14.988,8.888-19.949c5.926-4.959,13.058-7.44,21.397-7.44c7.462,0,14.024,1.824,19.687,5.466
		c5.662,3.644,10.073,8.714,13.235,15.209l-15.275,8.822c-3.685-7.9-9.569-11.851-17.646-11.851c-3.773,0-6.736,0.855-8.888,2.566
		c-2.15,1.711-3.226,3.932-3.226,6.65c0,2.896,1.207,5.247,3.621,7.044c2.415,1.8,7.044,3.755,13.892,5.859
		c2.811,0.88,4.939,1.562,6.388,2.043c1.448,0.482,3.423,1.229,5.926,2.237c2.5,1.011,4.43,1.955,5.792,2.832
		c1.362,0.878,2.919,2.063,4.677,3.556c1.753,1.492,3.093,3.026,4.015,4.607s1.711,3.489,2.37,5.729
		c0.659,2.237,0.988,4.674,0.988,7.308c0,8.517-3.095,15.275-9.284,20.278C681.777,739.813,673.723,742.315,663.802,742.315"/>
	<path fill="#F2931A" d="M770.871,740.471l-5.861-16.591h-37.863l-5.529,16.591h-19.62l32.259-92.174h22.518l32.518,92.174H770.871z
		 M733.066,706.894h25.941l-13.301-37.659L733.066,706.894z"/>
	<polygon fill="#F2931A" points="861.851,648.297 830.246,704.523 830.246,740.471 812.208,740.471 812.208,704.528 
		780.737,648.297 801.279,648.297 821.251,686.674 841.309,648.297 	"/>
	<path fill="#F2931A" d="M557.597,318.216l1.925-4.149l26.316-56.382H381.055c0,0,56.547,147.893,57.068,148.735l19.182-40.949
		l-28.467-74.895h25.495h59.97h19.823l-3.868,8.278L430.04,513.801c-1.443,3.086-3.186,5.973-5.191,8.639
		c-9.1,12.066-23.511,19.462-38.944,19.462c-15.734,0-30.586-8.919-38.143-22.709c-4.63-8.479-6.273-17.839-4.891-26.939
		c0.08-0.521,0.08-1.042,0.121-1.563H310c-2.265,21.687,4.851,43.855,21.006,60.872c10.944,11.525,25.495,19.401,41.169,22.067
		c36.64,6.273,72.417-13.208,87.67-45.939L557.597,318.216z"/>
	<polygon fill="#F2931A" points="690.064,555.05 670.602,460.184 643.944,330.363 631.697,270.654 629.032,257.685 605.14,257.685 
		600.711,267.186 575.516,321.203 473.795,539.776 457.5,574.793 493.499,574.793 507.488,544.808 609.51,326.174 651.4,530.216 
		573.571,495.321 559.661,525.146 562.388,526.367 667.234,573.369 670.409,574.793 694.116,574.793 	"/>
</g>
</svg>
