<svg aria-hidden="true" style="position: absolute; width: 0; height: 0; overflow: hidden;" version="1.1" xmlns="http://www.w3.org/2000/svg" xmlns:xlink="http://www.w3.org/1999/xlink">
<defs>
<symbol id="icon-redux" viewBox="0 0 32 32">
<path fill="#764abc" style="fill: var(--color1, #764abc)" d="M22.177 22.005c1.159-0.1 2.057-1.12 1.999-2.339-0.061-1.219-1.060-2.197-2.277-2.197h-0.081c-1.257 0.041-2.237 1.099-2.197 2.359 0.040 0.639 0.301 1.159 0.659 1.537-1.397 2.717-3.495 4.715-6.672 6.393-2.137 1.117-4.395 1.539-6.592 1.239-1.837-0.259-3.275-1.080-4.155-2.397-1.317-1.999-1.437-4.155-0.34-6.312 0.801-1.559 1.999-2.697 2.799-3.257-0.2-0.519-0.44-1.397-0.56-2.056-5.915 4.236-5.313 10.028-3.516 12.765 1.339 1.997 4.076 3.275 7.072 3.275 0.799 0 1.639-0.059 2.457-0.259 5.195-0.999 9.129-4.115 11.387-8.709zM29.308 17.011c-3.095-3.636-7.651-5.633-12.845-5.633h-0.68c-0.337-0.739-1.116-1.199-1.996-1.199h-0.060c-1.257 0-2.237 1.080-2.196 2.337 0.040 1.197 1.059 2.197 2.277 2.197h0.099c0.9-0.040 1.679-0.6 1.997-1.399h0.74c3.079 0 5.993 0.899 8.651 2.656 2.036 1.339 3.496 3.096 4.315 5.195 0.717 1.717 0.679 3.396-0.060 4.796-1.139 2.196-3.057 3.356-5.593 3.356-1.599 0-3.156-0.5-3.956-0.859-0.479 0.397-1.279 1.057-1.859 1.457 1.757 0.797 3.536 1.257 5.253 1.257 3.896 0 6.791-2.196 7.891-4.315 1.197-2.397 1.099-6.432-1.959-9.888zM8.653 22.723c0.039 1.199 1.057 2.197 2.277 2.197h0.080c1.279-0.040 2.257-1.097 2.197-2.357 0-1.199-1.039-2.196-2.257-2.196h-0.081c-0.080 0-0.199 0-0.3 0.039-1.657-2.797-2.357-5.795-2.096-9.028 0.159-2.437 0.959-4.556 2.396-6.313 1.199-1.499 3.456-2.239 4.995-2.277 4.315-0.081 6.113 5.295 6.252 7.432l1.997 0.599c-0.46-6.552-4.533-9.989-8.429-9.989-3.656 0-7.031 2.657-8.391 6.553-1.857 5.195-0.639 10.188 1.639 14.184-0.199 0.26-0.319 0.719-0.279 1.157z"></path>
</symbol>
<symbol id="icon-bootstrap" viewBox="0 0 32 32">
<path fill="#563d7c" style="fill: var(--color2, #563d7c)" d="M26.667 0h-21.333c-2.943 0.008-5.325 2.391-5.333 5.333v21.333c0 2.933 2.4 5.333 5.333 5.333h21.333c2.933 0 5.333-2.4 5.333-5.333v-21.333c0-2.933-2.4-5.333-5.333-5.333zM23.751 22.473c-0.267 0.643-0.689 1.209-1.231 1.645-0.56 0.453-1.269 0.827-2.143 1.093-0.872 0.271-1.909 0.407-3.111 0.407h-8.576v-18.667h9.069c1.677 0 3.021 0.377 4.027 1.147 1.013 0.773 1.517 1.925 1.517 3.48 0 0.94-0.229 1.747-0.691 2.413-0.459 0.663-1.12 1.181-1.973 1.541v0.061c1.139 0.24 2.020 0.78 2.6 1.62s0.877 1.901 0.877 3.183c0 0.717-0.139 1.4-0.4 2.037zM20.049 17.873c-0.547-0.5-1.315-0.744-2.307-0.744h-5.763v5.824h5.779c0.987 0 1.76-0.256 2.307-0.773 0.547-0.513 0.827-1.245 0.827-2.187-0.009-0.92-0.28-1.632-0.827-2.12zM19.249 14.109c0.528-0.448 0.787-1.089 0.787-1.925 0-0.939-0.233-1.605-0.707-1.987-0.469-0.38-1.147-0.577-2.037-0.577h-5.333v5.151h5.333c0.777 0 1.44-0.227 1.957-0.661z"></path>
</symbol>
<symbol id="icon-visualstudiocode" viewBox="0 0 32 32">
<path fill="#007acc" style="fill: var(--color3, #007acc)" d="M30.867 3.449l-6.587-3.169c-0.253-0.124-0.55-0.197-0.864-0.197-0.55 0-1.049 0.223-1.409 0.584v0l-12.613 11.507-5.493-4.171c-0.221-0.169-0.501-0.271-0.805-0.271-0.346 0-0.661 0.132-0.897 0.348l-1.762 1.602c-0.269 0.245-0.436 0.596-0.436 0.987s0.167 0.741 0.434 0.984l0.001 0.001 4.764 4.347-4.764 4.347c-0.268 0.245-0.435 0.596-0.435 0.985s0.168 0.742 0.435 0.986l0.001 0.001 1.764 1.601c0.236 0.215 0.551 0.347 0.896 0.347 0.304 0 0.584-0.102 0.808-0.273l-0.003 0.002 5.493-4.171 12.613 11.507c0.36 0.361 0.858 0.584 1.408 0.584 0.314 0 0.611-0.073 0.876-0.203l-0.012 0.005 6.589-3.169c0.675-0.331 1.131-1.013 1.131-1.801 0-0.001 0-0.001 0-0.002v0-21.495c0-0 0-0 0-0 0-0.789-0.457-1.472-1.122-1.797l-0.012-0.005zM24.005 23.264l-9.571-7.264 9.571-7.264z"></path>
</symbol>
<symbol id="icon-figma" viewBox="0 0 32 32">
<path fill="#f24e1e" style="fill: var(--color4, #f24e1e)" d="M16 16c0-2.946 2.388-5.333 5.333-5.333s5.333 2.388 5.333 5.333v0c0 2.946-2.388 5.333-5.333 5.333s-5.333-2.388-5.333-5.333v0zM5.333 26.667c0-2.946 2.388-5.333 5.333-5.333v0h5.333v5.333c0 2.946-2.388 5.333-5.333 5.333s-5.333-2.388-5.333-5.333v0zM16 0v10.667h5.333c2.946 0 5.333-2.388 5.333-5.333s-2.388-5.333-5.333-5.333v0zM5.333 5.333c0 2.946 2.388 5.333 5.333 5.333v0h5.333v-10.667h-5.333c-2.946 0-5.333 2.388-5.333 5.333v0zM5.333 16c0 2.946 2.388 5.333 5.333 5.333v0h5.333v-10.667h-5.333c-2.946 0-5.333 2.388-5.333 5.333v0z"></path>
</symbol>
<symbol id="icon-typescript" viewBox="0 0 32 32">
<path fill="#007acc" style="fill: var(--color3, #007acc)" d="M0 16v16h32v-32h-32zM25.788 14.725c0.813 0.203 1.432 0.564 2.001 1.153 0.295 0.315 0.732 0.888 0.767 1.027 0.011 0.040-1.381 0.973-2.224 1.497-0.031 0.020-0.153-0.112-0.289-0.315-0.413-0.6-0.844-0.859-1.504-0.904-0.971-0.067-1.595 0.441-1.589 1.289-0.001 0.015-0.001 0.032-0.001 0.050 0 0.201 0.051 0.391 0.14 0.557l-0.003-0.006c0.213 0.441 0.611 0.707 1.853 1.244 2.292 0.987 3.272 1.636 3.881 2.56 0.68 1.031 0.833 2.677 0.371 3.901-0.507 1.331-1.767 2.235-3.54 2.533-0.548 0.097-1.848 0.083-2.437-0.024-1.285-0.229-2.504-0.864-3.256-1.697-0.295-0.324-0.869-1.173-0.833-1.233 0.015-0.021 0.147-0.103 0.293-0.188 0.144-0.081 0.681-0.392 1.189-0.687l0.92-0.533 0.193 0.285c0.269 0.411 0.857 0.975 1.213 1.163 1.021 0.539 2.423 0.463 3.113-0.157 0.257-0.217 0.419-0.54 0.419-0.9 0-0.021-0.001-0.042-0.002-0.062l0 0.003c0-0.371-0.047-0.533-0.24-0.813-0.248-0.355-0.756-0.653-2.199-1.28-1.651-0.711-2.361-1.152-3.012-1.853-0.392-0.445-0.694-0.981-0.871-1.57l-0.008-0.030c-0.121-0.452-0.152-1.585-0.056-2.041 0.34-1.596 1.544-2.707 3.281-3.037 0.564-0.107 1.875-0.067 2.428 0.071zM18.276 16.061l0.011 1.311h-4.167v11.835h-2.947v-11.835h-4.163v-1.285c0-0.712 0.015-1.307 0.035-1.32 0.016-0.021 2.551-0.032 5.623-0.027l5.593 0.016z"></path>
</symbol>
<symbol id="icon-jest" viewBox="0 0 32 32">
<path fill="#c21325" style="fill: var(--color5, #c21325)" d="M29.668 15.76c-0.003-1.918-1.306-3.531-3.075-4.007l-0.029-0.007 3.984-11.747h-19.743l3.995 11.784c-1.742 0.519-2.99 2.106-2.992 3.984v0c0 1.391 0.693 2.623 1.751 3.381-0.442 0.619-0.917 1.161-1.44 1.653l-0.006 0.005c-0.956 0.912-2.083 1.653-3.328 2.17l-0.072 0.026c-1.112-0.751-1.593-2.075-1.159-3.261 1.704-0.541 2.917-2.109 2.917-3.96 0-2.284-1.847-4.137-4.129-4.147h-0.001c-2.291 0.003-4.148 1.86-4.151 4.15v0c0 1.131 0.463 2.168 1.204 2.909-0.064 0.129-0.129 0.26-0.195 0.399-0.62 1.279-1.324 2.724-1.593 4.345-0.537 3.243 0.343 5.845 2.465 7.319 1.089 0.776 2.447 1.241 3.914 1.241 0.005 0 0.009 0 0.014 0h-0.001c2.436 0 4.909-1.223 7.3-2.409 1.705-0.843 3.465-1.723 5.197-2.149 0.64-0.157 1.307-0.249 2.011-0.352 1.427-0.204 2.9-0.416 4.224-1.187 1.505-0.874 2.58-2.347 2.904-4.084l0.006-0.037c0.232-1.325 0-2.659-0.592-3.827 0.397-0.64 0.62-1.389 0.62-2.195zM27.861 15.76c0 1.287-1.047 2.333-2.333 2.333-1.288-0.004-2.331-1.049-2.331-2.337 0-0.739 0.343-1.399 0.879-1.827l0.005-0.004 0.009-0.009c0.075-0.056 0.157-0.112 0.24-0.167 0 0 0.011 0 0.011-0.009 0.037-0.019 0.073-0.047 0.111-0.067 0.009 0 0.019-0.008 0.028-0.008 0.037-0.019 0.084-0.037 0.129-0.056 0.047-0.019 0.093-0.036 0.131-0.055 0.009 0 0.017-0.009 0.027-0.009 0.037-0.009 0.075-0.028 0.112-0.037 0.009 0 0.027-0.009 0.037-0.009 0.045-0.009 0.083-0.019 0.129-0.027h0.009l0.139-0.029c0.009 0 0.027 0 0.037-0.009 0.037 0 0.073-0.009 0.111-0.009h0.047c0.047 0 0.093-0.009 0.148-0.009h0.12c0.037 0 0.067 0 0.103 0.009h0.019c0.073 0.009 0.148 0.019 0.223 0.037 1.070 0.235 1.86 1.175 1.861 2.298v0zM13.391 1.853h14.573l-3.345 9.867c-0.139 0.027-0.277 0.073-0.416 0.12l-3.52-7.18-3.531 7.133c-0.139-0.045-0.288-0.073-0.436-0.101zM20.015 14.953c-0.181-0.887-0.626-1.649-1.248-2.221l-0.003-0.003 1.917-3.872 1.936 3.956c-0.573 0.573-0.991 1.307-1.157 2.14zM15.373 13.489c0.045-0.009 0.083-0.019 0.129-0.027h0.027c0.039-0.011 0.075-0.011 0.112-0.020h0.037c0.037 0 0.065-0.009 0.101-0.009h0.361c0.037 0 0.065 0.009 0.093 0.009 0.019 0 0.027 0 0.047 0.009 0.036 0.009 0.064 0.009 0.101 0.019 0.009 0 0.019 0 0.037 0.009l0.129 0.027h0.009c0.037 0.011 0.075 0.020 0.111 0.039 0.009 0 0.019 0.009 0.037 0.009 0.028 0.009 0.065 0.019 0.093 0.036 0.009 0 0.019 0.009 0.027 0.009 0.037 0.019 0.075 0.028 0.112 0.047h0.009c0.046 0.018 0.085 0.040 0.121 0.066l-0.001-0.001h0.009c0.037 0.019 0.075 0.045 0.112 0.064 0.009 0 0.009 0.009 0.017 0.009 0.037 0.019 0.067 0.047 0.103 0.065l0.009 0.009c0.111 0.083 0.213 0.176 0.315 0.268l0.009 0.009c0.396 0.417 0.64 0.982 0.64 1.604 0 0.003 0 0.006-0 0.009v-0c-0.044 1.256-1.072 2.257-2.335 2.257s-2.291-1.001-2.335-2.253l-0-0.004c0-0.002 0-0.004 0-0.007 0-1.083 0.741-1.993 1.744-2.25l0.016-0.004zM6.256 13.424c1.288 0 2.335 1.048 2.335 2.335s-1.047 2.335-2.333 2.335-2.336-1.047-2.336-2.333 1.048-2.336 2.335-2.336zM27.807 21.457c-0.224 1.227-0.968 2.245-1.991 2.833l-0.020 0.011c-1.011 0.584-2.252 0.769-3.559 0.955-0.871 0.112-1.613 0.248-2.343 0.419l0.156-0.031c-1.927 0.473-3.779 1.4-5.576 2.289-2.299 1.139-4.467 2.213-6.476 2.213-0.009 0-0.020 0-0.030 0-1.067 0-2.054-0.344-2.856-0.927l0.014 0.010c-2.039-1.408-1.937-4.048-1.696-5.493 0.223-1.353 0.843-2.621 1.436-3.836 0.037-0.073 0.065-0.139 0.103-0.213 0.203 0.075 0.416 0.131 0.639 0.168-0.352 1.964 0.648 3.992 2.595 4.993l0.352 0.185 0.379-0.139c1.621-0.575 3.123-1.511 4.448-2.761 0.721-0.674 1.357-1.424 1.898-2.242l0.029-0.046c0.213 0.036 0.427 0.045 0.64 0.045 1.917-0.005 3.529-1.306 4.004-3.074l0.007-0.029h1.556c0.479 1.799 2.093 3.103 4.012 3.103 0 0 0.001 0 0.001 0h-0c0.768 0 1.48-0.213 2.093-0.573 0.24 0.693 0.315 1.417 0.185 2.14z"></path>
</symbol>
<symbol id="icon-firebase" viewBox="0 0 32 32">
<path fill="#ffca28" style="fill: var(--color6, #ffca28)" d="M5.187 20.897l3.153-20.283c0.055-0.35 0.354-0.614 0.714-0.614 0.276 0 0.515 0.154 0.637 0.381l0.002 0.004 3.391 6.361zM27.58 25.819l-3.003-18.665c-0.060-0.345-0.357-0.604-0.714-0.604-0.199 0-0.379 0.080-0.51 0.21l0-0-18.933 19.059 10.476 5.904c0.304 0.174 0.669 0.277 1.058 0.277s0.754-0.103 1.069-0.282l-0.011 0.006zM19.067 9.531l-2.427-4.643c-0.123-0.232-0.364-0.387-0.64-0.387s-0.517 0.155-0.638 0.383l-0.002 0.004-10.653 19.091z"></path>
</symbol>
<symbol id="icon-git" viewBox="0 0 32 32">
<path fill="#f05032" style="fill: var(--color7, #f05032)" d="M31.395 14.573l-13.972-13.971c-0.805-0.804-2.109-0.804-2.917 0l-2.895 2.9 3.68 3.68c0.86-0.287 1.839-0.093 2.519 0.588 0.688 0.687 0.877 1.677 0.584 2.533l3.544 3.547c0.86-0.297 1.849-0.104 2.533 0.58 0.961 0.96 0.961 2.512 0 3.472-0.959 0.959-2.508 0.959-3.467 0-0.719-0.721-0.899-1.783-0.539-2.661l-3.319-3.301v8.7c0.235 0.115 0.456 0.271 0.651 0.464 0.951 0.961 0.951 2.511 0 3.467-0.959 0.961-2.519 0.961-3.479 0-0.959-0.959-0.959-2.505 0-3.464 0.243-0.24 0.516-0.421 0.807-0.541v-8.785c-0.289-0.121-0.565-0.296-0.8-0.535-0.727-0.727-0.901-1.789-0.528-2.679l-3.616-3.633-9.581 9.575c-0.8 0.807-0.8 2.112 0 2.919l13.973 13.969c0.805 0.805 2.109 0.805 2.915 0l13.907-13.907c0.807-0.804 0.807-2.109 0-2.916z"></path>
</symbol>
<symbol id="icon-github" viewBox="0 0 32 32">
<path d="M16 0.396c-8.84 0-16 7.164-16 16 0 7.071 4.584 13.067 10.94 15.18 0.8 0.151 1.093-0.344 1.093-0.769 0-0.38-0.013-1.387-0.020-2.72-4.451 0.965-5.389-2.147-5.389-2.147-0.728-1.847-1.78-2.34-1.78-2.34-1.449-0.992 0.112-0.972 0.112-0.972 1.607 0.112 2.451 1.648 2.451 1.648 1.427 2.447 3.745 1.74 4.66 1.331 0.144-1.035 0.556-1.74 1.013-2.14-3.553-0.4-7.288-1.776-7.288-7.907 0-1.747 0.62-3.173 1.647-4.293-0.18-0.404-0.72-2.031 0.14-4.235 0 0 1.34-0.429 4.4 1.64 1.28-0.356 2.64-0.532 4-0.54 1.36 0.008 2.72 0.184 4 0.54 3.040-2.069 4.38-1.64 4.38-1.64 0.86 2.204 0.32 3.831 0.16 4.235 1.020 1.12 1.64 2.547 1.64 4.293 0 6.147-3.74 7.5-7.3 7.893 0.56 0.48 1.080 1.461 1.080 2.96 0 2.141-0.020 3.861-0.020 4.381 0 0.42 0.28 0.92 1.1 0.76 6.401-2.099 10.981-8.099 10.981-15.159 0-8.836-7.164-16-16-16z"></path>
</symbol>
<symbol id="icon-sass" viewBox="0 0 32 32">
<path fill="#c69" style="fill: var(--color8, #c69)" d="M16 0c8.836 0 16 7.164 16 16s-7.164 16-16 16-16-7.164-16-16 7.164-16 16-16zM12.82 21.331c0.233 0.86 0.208 1.664-0.032 2.389l-0.087 0.24c-0.032 0.081-0.069 0.16-0.104 0.235-0.187 0.387-0.435 0.747-0.74 1.080-0.931 1.012-2.229 1.396-2.787 1.073-0.6-0.349-0.301-1.78 0.779-2.92 1.161-1.224 2.827-2.012 2.827-2.012v-0.004zM26.035 6.849c-0.723-2.844-5.436-3.779-9.896-2.193-2.652 0.943-5.525 2.424-7.591 4.356-2.457 2.295-2.848 4.295-2.687 5.131 0.569 2.948 4.609 4.876 6.271 6.307v0.008c-0.489 0.24-4.075 2.039-4.915 3.9-0.9 1.96 0.14 3.361 0.82 3.54 2.1 0.581 4.26-0.48 5.42-2.199 1.12-1.681 1.021-3.841 0.539-4.901 0.661-0.18 1.44-0.26 2.44-0.139 2.801 0.32 3.361 2.080 3.24 2.8-0.12 0.719-0.697 1.139-0.899 1.259-0.2 0.121-0.26 0.16-0.241 0.241 0.020 0.12 0.121 0.12 0.28 0.1 0.22-0.040 1.461-0.6 1.521-1.961 0.060-1.72-1.581-3.639-4.5-3.6-1.2 0.021-1.961 0.121-2.5 0.341-0.040-0.060-0.081-0.1-0.14-0.14-1.8-1.94-5.14-3.3-5-5.88 0.040-0.94 0.38-3.419 6.4-6.419 4.94-2.461 8.881-1.78 9.561-0.28 0.977 2.139-2.101 6.12-7.241 6.699-1.96 0.22-2.98-0.539-3.241-0.82-0.279-0.3-0.319-0.32-0.419-0.259-0.16 0.080-0.060 0.34 0 0.5 0.16 0.4 0.78 1.1 1.861 1.46 0.939 0.3 3.24 0.479 6-0.6 3.099-1.199 5.519-4.54 4.819-7.34z"></path>
</symbol>
<symbol id="icon-react" viewBox="0 0 32 32">
<path fill="#61dafb" style="fill: var(--color9, #61dafb)" d="M16 13.148c-1.575 0-2.852 1.277-2.852 2.852s1.277 2.852 2.852 2.852v0c1.575 0 2.852-1.277 2.852-2.852s-1.277-2.852-2.852-2.852v0zM8.011 21.673l-0.629-0.16c-4.691-1.185-7.381-3.197-7.381-5.519s2.691-4.333 7.381-5.519l0.629-0.159 0.177 0.624c0.545 1.86 1.163 3.443 1.899 4.957l-0.082-0.186 0.135 0.284-0.135 0.284c-0.656 1.329-1.275 2.912-1.761 4.551l-0.056 0.22zM7.089 11.933c-3.565 1.001-5.753 2.533-5.753 4.061 0 1.527 2.188 3.059 5.753 4.061 0.512-1.62 1.046-2.965 1.662-4.263l-0.086 0.202c-0.531-1.098-1.066-2.443-1.511-3.828l-0.065-0.234zM23.989 21.673l-0.177-0.625c-0.544-1.859-1.162-3.441-1.9-4.954l0.081 0.184-0.135-0.284 0.135-0.284c0.656-1.329 1.275-2.911 1.762-4.55l0.056-0.221 0.177-0.624 0.631 0.159c4.689 1.185 7.38 3.197 7.38 5.52s-2.691 4.333-7.38 5.519zM23.335 15.995c0.64 1.385 1.169 2.747 1.576 4.061 3.567-1.003 5.753-2.535 5.753-4.061 0-1.528-2.188-3.059-5.753-4.061-0.511 1.619-1.045 2.963-1.662 4.262l0.086-0.2zM7.080 11.927l-0.177-0.623c-1.319-4.648-0.919-7.979 1.097-9.141 1.977-1.141 5.152 0.207 8.479 3.621l0.453 0.465-0.453 0.465c-1.146 1.19-2.207 2.482-3.162 3.853l-0.068 0.103-0.18 0.257-0.313 0.027c-1.875 0.151-3.596 0.439-5.264 0.86l0.218-0.047zM9.608 3.087c-0.357 0-0.673 0.077-0.94 0.231-1.325 0.764-1.56 3.42-0.647 7.004 1.21-0.285 2.681-0.521 4.18-0.658l0.131-0.010c0.894-1.264 1.792-2.37 2.756-3.414l-0.020 0.022c-2.080-2.025-4.049-3.175-5.46-3.175zM22.393 30.236c-0.001 0-0.001 0 0 0-1.9 0-4.34-1.431-6.872-4.031l-0.453-0.465 0.453-0.465c1.146-1.19 2.206-2.482 3.16-3.854l0.068-0.103 0.18-0.257 0.312-0.027c1.875-0.15 3.597-0.438 5.267-0.858l-0.218 0.046 0.629-0.159 0.179 0.624c1.316 4.645 0.917 7.977-1.099 9.139-0.449 0.259-0.988 0.411-1.562 0.411-0.016 0-0.031-0-0.047-0l0.002 0zM16.932 25.728c2.080 2.025 4.049 3.175 5.46 3.175h0.001c0.356 0 0.673-0.077 0.939-0.231 1.325-0.764 1.561-3.421 0.647-7.005-1.212 0.286-2.682 0.522-4.182 0.658l-0.13 0.010c-0.893 1.265-1.791 2.371-2.755 3.416l0.020-0.022zM24.92 11.927l-0.629-0.159c-1.453-0.376-3.175-0.664-4.939-0.806l-0.111-0.007-0.312-0.027-0.18-0.257c-1.021-1.474-2.082-2.766-3.237-3.966l0.009 0.010-0.453-0.465 0.453-0.465c3.325-3.413 6.499-4.761 8.479-3.621 2.016 1.163 2.416 4.493 1.099 9.14zM19.667 9.653c1.523 0.139 2.969 0.364 4.312 0.668 0.915-3.584 0.679-6.24-0.647-7.004-1.317-0.761-3.793 0.405-6.4 2.944 0.943 1.022 1.841 2.128 2.666 3.289l0.069 0.103zM9.608 30.236c-0.014 0-0.030 0-0.046 0-0.574 0-1.113-0.152-1.577-0.419l0.015 0.008c-2.016-1.161-2.416-4.492-1.097-9.139l0.176-0.624 0.629 0.159c1.54 0.388 3.239 0.661 5.047 0.812l0.313 0.027 0.179 0.257c1.022 1.475 2.083 2.767 3.239 3.967l-0.010-0.010 0.453 0.465-0.453 0.465c-2.531 2.6-4.971 4.031-6.868 4.031zM8.021 21.667c-0.915 3.584-0.679 6.241 0.647 7.005 1.316 0.751 3.791-0.407 6.4-2.944-0.943-1.022-1.841-2.129-2.667-3.29l-0.069-0.103c-1.629-0.146-3.099-0.382-4.534-0.711l0.224 0.043zM16 22.504c-1.097 0-2.225-0.048-3.355-0.141l-0.313-0.027-0.18-0.257c-0.544-0.768-1.139-1.691-1.697-2.639l-0.103-0.19c-0.452-0.758-0.971-1.732-1.45-2.728l-0.105-0.243-0.133-0.284 0.133-0.284c0.584-1.239 1.102-2.212 1.658-3.161l-0.103 0.191c0.552-0.955 1.159-1.907 1.8-2.829l0.18-0.257 0.313-0.027c1.005-0.090 2.174-0.142 3.355-0.142s2.35 0.052 3.505 0.153l-0.15-0.011 0.312 0.027 0.179 0.257c1.177 1.666 2.294 3.567 3.252 5.56l0.104 0.24 0.135 0.284-0.135 0.284c-1.058 2.232-2.176 4.133-3.439 5.925l0.083-0.125-0.179 0.257-0.312 0.027c-1.129 0.093-2.259 0.141-3.356 0.141zM13.071 21.059c1.973 0.148 3.885 0.148 5.86 0 1.004-1.445 1.978-3.104 2.827-4.836l0.101-0.228c-0.947-1.958-1.922-3.617-3.012-5.19l0.083 0.126c-0.877-0.071-1.898-0.111-2.929-0.111s-2.052 0.040-3.063 0.119l0.134-0.008c-1.008 1.447-1.983 3.106-2.83 4.84l-0.099 0.224c0.951 1.96 1.926 3.619 3.014 5.193l-0.085-0.13z"></path>
</symbol>
<symbol id="icon-javascript" viewBox="0 0 32 32">
<path fill="#f7df1e" style="fill: var(--color10, #f7df1e)" d="M0 0h32v32h-32zM29.379 24.368c-0.233-1.46-1.184-2.687-4.004-3.831-0.981-0.46-2.072-0.78-2.396-1.52-0.121-0.44-0.14-0.68-0.061-0.94 0.2-0.861 1.22-1.12 2.020-0.88 0.52 0.16 1 0.56 1.301 1.2 1.379-0.901 1.379-0.901 2.34-1.5-0.36-0.56-0.539-0.801-0.781-1.040-0.84-0.94-1.959-1.42-3.779-1.379l-0.94 0.119c-0.901 0.22-1.76 0.7-2.28 1.34-1.52 1.721-1.081 4.721 0.759 5.961 1.82 1.36 4.481 1.659 4.821 2.94 0.32 1.56-1.16 2.060-2.621 1.88-1.081-0.24-1.68-0.781-2.34-1.781l-2.44 1.401c0.28 0.64 0.6 0.919 1.080 1.479 2.32 2.341 8.12 2.221 9.161-1.339 0.039-0.12 0.32-0.94 0.099-2.2zM17.401 14.708h-2.997c0 2.584-0.012 5.152-0.012 7.74 0 1.643 0.084 3.151-0.184 3.615-0.44 0.919-1.573 0.801-2.088 0.64-0.528-0.261-0.796-0.621-1.107-1.14-0.084-0.14-0.147-0.261-0.169-0.261l-2.433 1.5c0.407 0.84 1 1.563 1.765 2.023 1.14 0.68 2.672 0.9 4.276 0.54 1.044-0.301 1.944-0.921 2.415-1.881 0.68-1.24 0.536-2.76 0.529-4.461 0.016-2.739 0-5.479 0-8.239z"></path>
</symbol>
<symbol id="icon-node-dot-js" viewBox="0 0 32 32">
<path fill="#393" style="fill: var(--color11, #393)" d="M15.997 32c-0.428 0-0.855-0.112-1.229-0.329l-3.915-2.316c-0.584-0.327-0.299-0.443-0.107-0.511 0.78-0.271 0.937-0.333 1.771-0.805 0.087-0.049 0.201-0.031 0.291 0.023l3.008 1.785c0.109 0.060 0.263 0.060 0.363 0l11.727-6.768c0.109-0.063 0.179-0.188 0.179-0.317v-13.533c0-0.132-0.071-0.256-0.183-0.323l-11.721-6.763c-0.108-0.063-0.252-0.063-0.361 0l-11.719 6.764c-0.113 0.065-0.185 0.193-0.185 0.321v13.533c0 0.129 0.072 0.252 0.185 0.313l3.212 1.856c1.743 0.872 2.811-0.155 2.811-1.187v-13.361c0-0.189 0.152-0.337 0.341-0.337h1.487c0.185 0 0.34 0.149 0.34 0.337v13.361c0 2.327-1.267 3.66-3.472 3.66-0.677 0-1.212 0-2.701-0.735l-3.077-1.769c-0.76-0.439-1.229-1.26-1.229-2.139v-13.533c0-0.879 0.471-1.7 1.229-2.137l11.727-6.776c0.743-0.42 1.728-0.42 2.464 0l11.725 6.776c0.76 0.439 1.232 1.259 1.232 2.137v13.533c0 0.879-0.472 1.697-1.232 2.139l-11.725 6.771c-0.373 0.217-0.799 0.329-1.233 0.329zM25.465 18.657c0-2.533-1.712-3.208-5.316-3.684-3.641-0.481-4.012-0.731-4.012-1.583 0-0.704 0.313-1.644 3.011-1.644 2.409 0 3.297 0.519 3.663 2.143 0.032 0.153 0.172 0.265 0.329 0.265h1.521c0.095 0 0.184-0.041 0.248-0.108 0.064-0.072 0.099-0.164 0.089-0.261-0.236-2.797-2.095-4.101-5.851-4.101-3.344 0-5.339 1.411-5.339 3.777 0 2.567 1.984 3.276 5.193 3.593 3.84 0.376 4.137 0.937 4.137 1.692 0 1.311-1.052 1.869-3.523 1.869-3.103 0-3.785-0.779-4.015-2.323-0.027-0.165-0.168-0.287-0.337-0.287h-1.516c-0.188 0-0.339 0.149-0.339 0.337 0 1.976 1.075 4.331 6.207 4.331 3.717 0.001 5.848-1.461 5.848-4.017z"></path>
</symbol>
<symbol id="icon-next-dot-js" viewBox="0 0 32 32">
<path d="M23.751 30.003c-0.119 0.063-0.112 0.088 0.007 0.028 0.036-0.016 0.067-0.037 0.093-0.063l-0 0c0-0.021-0.003-0.019-0.1 0.035zM23.988 29.877c-0.056 0.044-0.056 0.047 0.012 0.012 0.037-0.019 0.069-0.040 0.069-0.047 0-0.025-0.016-0.019-0.081 0.035zM24.144 29.783c-0.056 0.044-0.056 0.047 0.012 0.012 0.037-0.019 0.069-0.040 0.069-0.047 0-0.025-0.016-0.019-0.081 0.035zM24.3 29.689c-0.056 0.044-0.056 0.047 0.012 0.012 0.037-0.019 0.069-0.040 0.069-0.047 0-0.025-0.016-0.019-0.081 0.035zM24.516 29.549c-0.109 0.069-0.144 0.116-0.047 0.063 0.069-0.040 0.181-0.125 0.163-0.128-0.044 0.019-0.082 0.041-0.118 0.067l0.002-0.001zM14.952 0.008c-0.069 0.007-0.288 0.028-0.485 0.044-4.544 0.409-8.801 2.861-11.497 6.631-1.43 1.965-2.431 4.334-2.813 6.904l-0.011 0.087c-0.128 0.879-0.144 1.139-0.144 2.331s0.016 1.451 0.144 2.331c0.869 6.008 5.145 11.056 10.944 12.927 1.039 0.335 2.133 0.563 3.377 0.7 0.485 0.053 2.58 0.053 3.065 0 2.148-0.237 3.969-0.769 5.764-1.685 0.275-0.141 0.328-0.179 0.291-0.209-0.312-0.379-1.167-1.516-2.015-2.659l-0.591-0.834-2.559-3.456-3.205-4.744c-2.045-3.101-3.108-4.645-4.18-6.183l0.952 1.441c-0.012-0.003-0.025 2.105-0.031 4.679-0.009 4.507-0.012 4.688-0.069 4.795-0.056 0.125-0.152 0.224-0.271 0.283l-0.003 0.001c-0.1 0.051-0.188 0.060-0.66 0.060h-0.541l-0.144-0.091c-0.089-0.057-0.16-0.134-0.208-0.225l-0.002-0.003-0.065-0.141 0.007-6.271 0.009-6.273 0.097-0.121c0.065-0.076 0.142-0.14 0.228-0.188l0.004-0.002c0.128-0.063 0.179-0.069 0.72-0.069 0.639 0 0.744 0.025 0.911 0.207-0.11-0.286 1.162 1.609 2.423 3.511l1.437 2.303c2.077 3.149 4.916 7.449 6.312 9.561l2.533 3.837 0.128-0.084c1.249-0.838 2.329-1.789 3.27-2.865l0.016-0.019c1.947-2.219 3.292-5.011 3.755-8.091l0.011-0.088c0.128-0.879 0.144-1.139 0.144-2.331s-0.016-1.451-0.144-2.331c-0.869-6.008-5.145-11.056-10.944-12.927-0.962-0.319-2.092-0.565-3.257-0.691l-0.074-0.006c-0.3-0.031-2.368-0.065-2.629-0.044zM21.501 9.685c0.15 0.076 0.263 0.207 0.315 0.365l0.001 0.004c0.025 0.081 0.031 1.82 0.025 5.739l-0.009 5.624-0.992-1.52-0.995-1.52v-4.088c0-2.643 0.012-4.128 0.031-4.2 0.048-0.171 0.159-0.31 0.306-0.393l0.003-0.002c0.128-0.065 0.175-0.072 0.667-0.072 0.463 0 0.544 0.007 0.648 0.063z"></path>
</symbol>
<symbol id="icon-css3" viewBox="0 0 32 32">
<path fill="#1572b6" style="fill: var(--color12, #1572b6)" d="M2 0h28l-2.547 28.751-11.484 3.249-11.42-3.251zM24.787 5.884l-17.573-0.004 0.284 3.496 13.5 0.003-0.34 3.621h-8.853l0.32 3.431h8.243l-0.488 4.697-3.88 1.072-3.941-1.080-0.251-2.813h-3.48l0.387 5.14 7.287 2.271 7.164-2.040z"></path>
</symbol>
<symbol id="icon-html5" viewBox="0 0 32 32">
<path fill="#e34f26" style="fill: var(--color13, #e34f26)" d="M2 0h28l-2.547 28.751-11.484 3.249-11.419-3.251zM11.375 13l-0.309-3.624 13.412 0.004 0.307-3.496-17.568-0.004 0.931 10.68h12.168l-0.435 4.568-3.88 1.072-3.94-1.080-0.251-2.813h-3.479l0.44 5.561 7.229 1.933 7.172-1.924 0.992-10.876z"></path>
</symbol>
<symbol id="icon-mail" viewBox="0 0 24 24">
<path d="M19 7h-14c-1.104 0-2 0.896-2 2v9c0 1.104 0.896 2 2 2h14c1.104 0 2-0.896 2-2v-9c0-1.104-0.896-2-2-2zM9.316 14.316l1.602 1.4c0.305 0.266 0.691 0.398 1.082 0.398s0.777-0.133 1.082-0.398l1.602-1.4-0.037 0.037 3.646 3.646h-12.586l3.646-3.646-0.037-0.037zM5 17.293v-6.753l3.602 3.151-3.602 3.602zM15.398 13.691l3.602-3.151v6.75l-3.602-3.599zM19 9v0.21l-6.576 5.754c-0.227 0.198-0.621 0.198-0.848 0l-6.576-5.754v-0.21h14z"></path>
</symbol>
<symbol id="icon-windows" viewBox="0 0 24 24">
<path d="M3 1v3h-3v19h21v-3h3v-19h-21zM19 21h-17v-15h1v14h16v1zM22 18h-17v-10h17v10zM22 7h-17v-4h17v4zM14 4h-2v2h2v-2zM11 4h-2v2h2v-2zM8 4h-2v2h2v-2z"></path>
</symbol>
<symbol id="icon-external-link" viewBox="0 0 24 24">
<path d="M17 13v6c0 0.276-0.111 0.525-0.293 0.707s-0.431 0.293-0.707 0.293h-11c-0.276 0-0.525-0.111-0.707-0.293s-0.293-0.431-0.293-0.707v-11c0-0.276 0.111-0.525 0.293-0.707s0.431-0.293 0.707-0.293h6c0.552 0 1-0.448 1-1s-0.448-1-1-1h-6c-0.828 0-1.58 0.337-2.121 0.879s-0.879 1.293-0.879 2.121v11c0 0.828 0.337 1.58 0.879 2.121s1.293 0.879 2.121 0.879h11c0.828 0 1.58-0.337 2.121-0.879s0.879-1.293 0.879-2.121v-6c0-0.552-0.448-1-1-1s-1 0.448-1 1zM10.707 14.707l9.293-9.293v3.586c0 0.552 0.448 1 1 1s1-0.448 1-1v-6c0-0.136-0.027-0.265-0.076-0.383s-0.121-0.228-0.216-0.323c-0.001-0.001-0.001-0.001-0.002-0.002-0.092-0.092-0.202-0.166-0.323-0.216-0.118-0.049-0.247-0.076-0.383-0.076h-6c-0.552 0-1 0.448-1 1s0.448 1 1 1h3.586l-9.293 9.293c-0.391 0.391-0.391 1.024 0 1.414s1.024 0.391 1.414 0z"></path>
</symbol>
<symbol id="icon-download" viewBox="0 0 26 28">
<path d="M20 21c0-0.547-0.453-1-1-1s-1 0.453-1 1 0.453 1 1 1 1-0.453 1-1zM24 21c0-0.547-0.453-1-1-1s-1 0.453-1 1 0.453 1 1 1 1-0.453 1-1zM26 17.5v5c0 0.828-0.672 1.5-1.5 1.5h-23c-0.828 0-1.5-0.672-1.5-1.5v-5c0-0.828 0.672-1.5 1.5-1.5h7.266l2.109 2.125c0.578 0.562 1.328 0.875 2.125 0.875s1.547-0.313 2.125-0.875l2.125-2.125h7.25c0.828 0 1.5 0.672 1.5 1.5zM20.922 8.609c0.156 0.375 0.078 0.812-0.219 1.094l-7 7c-0.187 0.203-0.453 0.297-0.703 0.297s-0.516-0.094-0.703-0.297l-7-7c-0.297-0.281-0.375-0.719-0.219-1.094 0.156-0.359 0.516-0.609 0.922-0.609h4v-7c0-0.547 0.453-1 1-1h4c0.547 0 1 0.453 1 1v7h4c0.406 0 0.766 0.25 0.922 0.609z"></path>
</symbol>
<symbol id="icon-drivers-license-o" viewBox="0 0 32 28">
<path d="M14 18.937c0 1.141-0.75 2.063-1.672 2.063h-6.656c-0.922 0-1.672-0.922-1.672-2.063 0-2.063 0.5-4.438 2.562-4.438 0.625 0.625 1.484 1 2.438 1s1.813-0.375 2.438-1c2.063 0 2.562 2.375 2.562 4.438zM12 12c0 1.656-1.344 3-3 3s-3-1.344-3-3 1.344-3 3-3 3 1.344 3 3zM28 18.5v1c0 0.281-0.219 0.5-0.5 0.5h-11c-0.281 0-0.5-0.219-0.5-0.5v-1c0-0.281 0.219-0.5 0.5-0.5h11c0.281 0 0.5 0.219 0.5 0.5zM22 14.5v1c0 0.281-0.219 0.5-0.5 0.5h-5c-0.281 0-0.5-0.219-0.5-0.5v-1c0-0.281 0.219-0.5 0.5-0.5h5c0.281 0 0.5 0.219 0.5 0.5zM28 14.5v1c0 0.281-0.219 0.5-0.5 0.5h-3c-0.281 0-0.5-0.219-0.5-0.5v-1c0-0.281 0.219-0.5 0.5-0.5h3c0.281 0 0.5 0.219 0.5 0.5zM28 10.5v1c0 0.281-0.219 0.5-0.5 0.5h-11c-0.281 0-0.5-0.219-0.5-0.5v-1c0-0.281 0.219-0.5 0.5-0.5h11c0.281 0 0.5 0.219 0.5 0.5zM30 23.5v-17.5h-28v17.5c0 0.266 0.234 0.5 0.5 0.5h27c0.266 0 0.5-0.234 0.5-0.5zM32 4.5v19c0 1.375-1.125 2.5-2.5 2.5h-27c-1.375 0-2.5-1.125-2.5-2.5v-19c0-1.375 1.125-2.5 2.5-2.5h27c1.375 0 2.5 1.125 2.5 2.5z"></path>
</symbol>
<symbol id="icon-chevron-right" viewBox="0 0 20 20">
<path d="M9.163 4.516c0.418 0.408 4.502 4.695 4.502 4.695 0.223 0.219 0.335 0.504 0.335 0.789s-0.112 0.57-0.335 0.787c0 0-4.084 4.289-4.502 4.695-0.418 0.408-1.17 0.436-1.615 0-0.446-0.434-0.481-1.041 0-1.574l3.747-3.908-3.747-3.908c-0.481-0.533-0.446-1.141 0-1.576s1.197-0.409 1.615 0z"></path>
</symbol>
<symbol id="icon-paper-plane" viewBox="0 0 20 20">
<path d="M18.64 2.634c-0.344 0.121-17.321 6.104-17.656 6.222-0.284 0.1-0.347 0.345-0.010 0.479 0.401 0.161 3.796 1.521 3.796 1.521v0l2.25 0.901c0 0 10.838-7.958 10.984-8.066 0.148-0.108 0.318 0.095 0.211 0.211s-7.871 8.513-7.871 8.513v0.002l-0.452 0.503 0.599 0.322c0 0 4.65 2.504 4.982 2.682 0.291 0.156 0.668 0.027 0.752-0.334 0.099-0.426 2.845-12.261 2.906-12.525 0.079-0.343-0.148-0.552-0.491-0.431zM7 17.162c0 0.246 0.139 0.315 0.331 0.141 0.251-0.229 2.85-2.561 2.85-2.561l-3.181-1.644v4.064z"></path>
</symbol>
<symbol id="icon-code" viewBox="0 0 20 20">
<path d="M5.719 14.75c-0.236 0-0.474-0.083-0.664-0.252l-5.060-4.498 5.341-4.748c0.412-0.365 1.044-0.33 1.411 0.083s0.33 1.045-0.083 1.412l-3.659 3.253 3.378 3.002c0.413 0.367 0.45 0.999 0.083 1.412-0.197 0.223-0.472 0.336-0.747 0.336zM14.664 14.748l5.341-4.748-5.060-4.498c-0.413-0.367-1.045-0.33-1.411 0.083s-0.33 1.045 0.083 1.412l3.378 3.003-3.659 3.252c-0.413 0.367-0.45 0.999-0.083 1.412 0.197 0.223 0.472 0.336 0.747 0.336 0.236 0 0.474-0.083 0.664-0.252zM9.986 16.165l2-12c0.091-0.545-0.277-1.060-0.822-1.151-0.547-0.092-1.061 0.277-1.15 0.822l-2 12c-0.091 0.545 0.277 1.060 0.822 1.151 0.056 0.009 0.11 0.013 0.165 0.013 0.48 0 0.904-0.347 0.985-0.835z"></path>
</symbol>
<symbol id="icon-home" viewBox="0 0 20 20">
<path d="M18.672 11h-1.672v6c0 0.445-0.194 1-1 1h-4v-6h-4v6h-4c-0.806 0-1-0.555-1-1v-6h-1.672c-0.598 0-0.47-0.324-0.060-0.748l8.024-8.032c0.195-0.202 0.451-0.302 0.708-0.312 0.257 0.010 0.513 0.109 0.708 0.312l8.023 8.031c0.411 0.425 0.539 0.749-0.059 0.749z"></path>
</symbol>
<symbol id="icon-circle-right" viewBox="0 0 32 32">
<path d="M16 0c-8.837 0-16 7.163-16 16s7.163 16 16 16 16-7.163 16-16-7.163-16-16-16zM16 29c-7.18 0-13-5.82-13-13s5.82-13 13-13 13 5.82 13 13-5.82 13-13 13z"></path>
<path d="M11.086 22.086l2.829 2.829 8.914-8.914-8.914-8.914-2.828 2.828 6.086 6.086z"></path>
</symbol>
<symbol id="icon-circle-left" viewBox="0 0 32 32">
<path d="M16 32c8.837 0 16-7.163 16-16s-7.163-16-16-16-16 7.163-16 16 7.163 16 16 16zM16 3c7.18 0 13 5.82 13 13s-5.82 13-13 13-13-5.82-13-13 5.82-13 13-13z"></path>
<path d="M20.914 9.914l-2.829-2.829-8.914 8.914 8.914 8.914 2.828-2.828-6.086-6.086z"></path>
</symbol>
</defs>
</svg>
